<?xml version="1.0" encoding="UTF-8"?>
<!DOCTYPE svg PUBLIC "-//W3C//DTD SVG 1.1//EN" "http://www.w3.org/Graphics/SVG/1.1/DTD/svg11.dtd">
<svg xmlns="http://www.w3.org/2000/svg" version="1.1" width="225px" height="225px" style="shape-rendering:geometricPrecision; text-rendering:geometricPrecision; image-rendering:optimizeQuality; fill-rule:evenodd; clip-rule:evenodd" xmlns:xlink="http://www.w3.org/1999/xlink">
<g><path style="opacity:1" fill="#f9f9f9" d="M -0.5,-0.5 C 74.5,-0.5 149.5,-0.5 224.5,-0.5C 224.5,74.5 224.5,149.5 224.5,224.5C 149.5,224.5 74.5,224.5 -0.5,224.5C -0.5,149.5 -0.5,74.5 -0.5,-0.5 Z"/></g>
<g><path style="opacity:1" fill="#bb9b49" d="M 109.5,8.5 C 108.737,7.73209 107.737,7.23209 106.5,7C 109.634,6.20988 112.634,6.54321 115.5,8C 113.39,7.65342 111.39,7.82008 109.5,8.5 Z"/></g>
<g><path style="opacity:1" fill="#eae1d0" d="M 102.5,20.5 C 103.641,21.339 104.974,22.0057 106.5,22.5C 109.837,21.8381 113.337,21.8381 117,22.5C 118.876,22.4753 120.376,21.8086 121.5,20.5C 124.468,18.7681 127.635,17.4347 131,16.5C 134.121,16.7924 135.621,18.4591 135.5,21.5C 134.504,21.5858 133.671,21.2524 133,20.5C 132.502,23.8168 132.335,27.1501 132.5,30.5C 132.5,31.1667 132.167,31.5 131.5,31.5C 131.665,28.1501 131.498,24.8168 131,21.5C 129.878,24.3089 129.378,27.3089 129.5,30.5C 130.166,38.4879 130.499,46.4879 130.5,54.5C 129.167,53.8333 128.167,52.8333 127.5,51.5C 128.681,42.6411 128.514,33.6411 127,24.5C 126.829,33.0101 126.329,41.3434 125.5,49.5C 125.654,43.1409 125.321,36.8076 124.5,30.5C 124.415,28.6672 123.748,27.3339 122.5,26.5C 119.088,25.8129 115.754,24.8129 112.5,23.5C 108.952,24.9702 105.285,25.9702 101.5,26.5C 99.7454,33.9227 99.0787,41.5894 99.5,49.5C 98.6706,41.3434 98.1706,33.0101 98,24.5C 97.0439,34.1828 96.2106,43.8495 95.5,53.5C 95.5,54.1667 95.1667,54.5 94.5,54.5C 94.4267,46.1516 94.7601,37.8182 95.5,29.5C 95.614,26.6364 95.114,23.9698 94,21.5C 93.4585,29.8309 92.9585,38.1642 92.5,46.5C 92.502,49.6862 92.8353,52.6862 93.5,55.5C 93.1583,56.3382 92.4916,56.6716 91.5,56.5C 90.8529,55.7261 90.5195,54.7261 90.5,53.5C 91.4846,42.5058 91.9846,31.5058 92,20.5C 91.3292,21.2524 90.4959,21.5858 89.5,21.5C 89.3794,18.4591 90.8794,16.7924 94,16.5C 97.2272,17.199 100.061,18.5323 102.5,20.5 Z"/></g>
<g><path style="opacity:1" fill="#dac8a4" d="M 109.5,8.5 C 110.301,10.0418 110.634,11.7085 110.5,13.5C 111.5,13.5 112.5,13.5 113.5,13.5C 114.576,14.3791 115.41,16.0458 116,18.5C 116.667,6.5 117.333,6.5 118,18.5C 118.71,19.9733 119.876,20.6399 121.5,20.5C 120.376,21.8086 118.876,22.4753 117,22.5C 113.337,21.8381 109.837,21.8381 106.5,22.5C 104.974,22.0057 103.641,21.339 102.5,20.5C 104.144,20.7135 105.644,20.3802 107,19.5C 108.063,17.0838 108.896,14.5838 109.5,12C 109.18,10.3468 108.18,9.34684 106.5,9C 107.448,8.51722 108.448,8.35055 109.5,8.5 Z"/></g>
<g><path style="opacity:1" fill="#af8b24" d="M 127.5,51.5 C 126.5,51.1667 125.833,50.5 125.5,49.5C 126.329,41.3434 126.829,33.0101 127,24.5C 128.514,33.6411 128.681,42.6411 127.5,51.5 Z"/></g>
<g><path style="opacity:1" fill="#b08c26" d="M 135.5,21.5 C 135.313,27.2124 135.646,32.8791 136.5,38.5C 136.666,45.5079 136.5,52.5079 136,59.5C 134.296,57.6266 132.463,55.9599 130.5,54.5C 130.499,46.4879 130.166,38.4879 129.5,30.5C 129.378,27.3089 129.878,24.3089 131,21.5C 131.498,24.8168 131.665,28.1501 131.5,31.5C 131.834,38.5071 132.334,45.5071 133,52.5C 133.822,44.9882 133.655,37.6549 132.5,30.5C 132.335,27.1501 132.502,23.8168 133,20.5C 133.671,21.2524 134.504,21.5858 135.5,21.5 Z"/></g>
<g><path style="opacity:1" fill="#ad8819" d="M 94.5,54.5 C 93.8333,54.5 93.5,54.8333 93.5,55.5C 92.8353,52.6862 92.502,49.6862 92.5,46.5C 92.9585,38.1642 93.4585,29.8309 94,21.5C 95.114,23.9698 95.614,26.6364 95.5,29.5C 94.7601,37.8182 94.4267,46.1516 94.5,54.5 Z"/></g>
<g><path style="opacity:1" fill="#d9caa5" d="M 132.5,30.5 C 133.655,37.6549 133.822,44.9882 133,52.5C 132.334,45.5071 131.834,38.5071 131.5,31.5C 132.167,31.5 132.5,31.1667 132.5,30.5 Z"/></g>
<g><path style="opacity:1" fill="#b08d27" d="M 99.5,49.5 C 98.5,51.1667 97.1667,52.5 95.5,53.5C 96.2106,43.8495 97.0439,34.1828 98,24.5C 98.1706,33.0101 98.6706,41.3434 99.5,49.5 Z"/></g>
<g><path style="opacity:1" fill="#ad891b" d="M 122.5,26.5 C 123.748,27.3339 124.415,28.6672 124.5,30.5C 125.321,36.8076 125.654,43.1409 125.5,49.5C 125.167,49.5 124.833,49.5 124.5,49.5C 123.628,41.9008 122.961,34.2342 122.5,26.5 Z"/></g>
<g><path style="opacity:1" fill="#ad891d" d="M 101.5,26.5 C 102.438,28.9103 102.438,31.2436 101.5,33.5C 101.822,39.358 101.489,45.0247 100.5,50.5C 100.5,49.8333 100.167,49.5 99.5,49.5C 99.0787,41.5894 99.7454,33.9227 101.5,26.5 Z"/></g>
<g><path style="opacity:1" fill="#f5f3f4" d="M 88.5,38.5 C 88.17,45.1998 88.5033,51.8665 89.5,58.5C 90.5223,58.1445 91.189,57.4778 91.5,56.5C 92.4916,56.6716 93.1583,56.3382 93.5,55.5C 93.5,54.8333 93.8333,54.5 94.5,54.5C 95.1667,54.5 95.5,54.1667 95.5,53.5C 97.1667,52.5 98.5,51.1667 99.5,49.5C 100.167,49.5 100.5,49.8333 100.5,50.5C 99.8411,52.1379 99.1744,53.8045 98.5,55.5C 94.7685,56.9746 92.4352,59.6412 91.5,63.5C 68.1416,75.8827 58.3082,95.2161 62,121.5C 68.5374,146.536 84.7041,160.203 110.5,162.5C 136.646,161.837 153.813,149.171 162,124.5C 167.561,96.9623 158.061,76.629 133.5,63.5C 132.565,61.1386 131.232,58.9719 129.5,57C 128.551,56.3828 127.718,56.5494 127,57.5C 126.059,54.846 125.226,52.1794 124.5,49.5C 124.833,49.5 125.167,49.5 125.5,49.5C 125.833,50.5 126.5,51.1667 127.5,51.5C 128.167,52.8333 129.167,53.8333 130.5,54.5C 132.463,55.9599 134.296,57.6266 136,59.5C 136.5,52.5079 136.666,45.5079 136.5,38.5C 140.073,40.0101 143.74,41.6768 147.5,43.5C 178.474,63.22 190.307,91.22 183,127.5C 171.593,161.287 148.093,179.287 112.5,181.5C 79.9827,179.798 57.1493,164.131 44,134.5C 32.1869,94.4924 44.0202,63.8257 79.5,42.5C 82.0884,40.4082 85.0884,39.0749 88.5,38.5 Z"/></g>
<g><path style="opacity:1" fill="#f2eee6" d="M 119.5,49.5 C 119.44,48.9569 119.107,48.6236 118.5,48.5C 117.824,49.6016 117.158,50.6016 116.5,51.5C 115.89,50.609 115.557,49.609 115.5,48.5C 116.509,47.0648 117.843,46.2315 119.5,46C 118.376,45.7508 117.376,45.2508 116.5,44.5C 117.274,43.2888 118.107,43.2888 119,44.5C 119.333,42.8333 119.667,41.1667 120,39.5C 122.725,43.3083 122.558,46.6417 119.5,49.5 Z"/></g>
<g><path style="opacity:1" fill="#b18d28" d="M 91.5,56.5 C 91.189,57.4778 90.5223,58.1445 89.5,58.5C 88.5033,51.8665 88.17,45.1998 88.5,38.5C 89.1342,32.8552 89.4676,27.1886 89.5,21.5C 90.4959,21.5858 91.3292,21.2524 92,20.5C 91.9846,31.5058 91.4846,42.5058 90.5,53.5C 90.5195,54.7261 90.8529,55.7261 91.5,56.5 Z"/></g>
<g><path style="opacity:1" fill="#cbb88f" d="M 122.5,26.5 C 122.961,34.2342 123.628,41.9008 124.5,49.5C 125.226,52.1794 126.059,54.846 127,57.5C 127.718,56.5494 128.551,56.3828 129.5,57C 131.232,58.9719 132.565,61.1386 133.5,63.5C 133.5,63.8333 133.5,64.1667 133.5,64.5C 133.167,64.5 132.833,64.5 132.5,64.5C 130.993,60.3335 127.993,58.0002 123.5,57.5C 122.855,56.354 122.022,55.354 121,54.5C 120.023,55.7736 119.189,55.7736 118.5,54.5C 120.268,53.2379 121.935,52.2379 123.5,51.5C 122.483,48.972 121.316,48.972 120,51.5C 119.536,50.9056 119.369,50.2389 119.5,49.5C 122.558,46.6417 122.725,43.3083 120,39.5C 119.667,41.1667 119.333,42.8333 119,44.5C 118.107,43.2888 117.274,43.2888 116.5,44.5C 117.376,45.2508 118.376,45.7508 119.5,46C 117.843,46.2315 116.509,47.0648 115.5,48.5C 114.833,47.5 114.167,46.5 113.5,45.5C 113.783,44.7109 114.283,44.0442 115,43.5C 115.667,37.8333 115.667,32.1667 115,26.5C 112.88,25.3947 110.713,25.3947 108.5,26.5C 106.883,27.038 105.216,27.3713 103.5,27.5C 103.209,32.9682 104.876,37.6349 108.5,41.5C 109.5,42.8333 110.5,44.1667 111.5,45.5C 111.167,45.5 110.833,45.5 110.5,45.5C 109.265,45.2786 108.265,44.6119 107.5,43.5C 106.914,43.7093 106.414,44.0426 106,44.5C 105.798,42.7444 105.298,41.0777 104.5,39.5C 103.749,40.376 103.249,41.376 103,42.5C 102.819,39.3054 102.319,36.3054 101.5,33.5C 102.438,31.2436 102.438,28.9103 101.5,26.5C 105.285,25.9702 108.952,24.9702 112.5,23.5C 115.754,24.8129 119.088,25.8129 122.5,26.5 Z"/></g>
<g><path style="opacity:1" fill="#b92621" d="M 108.5,26.5 C 108.5,31.5 108.5,36.5 108.5,41.5C 104.876,37.6349 103.209,32.9682 103.5,27.5C 105.216,27.3713 106.883,27.038 108.5,26.5 Z"/></g>
<g><path style="opacity:1" fill="#0c0a06" d="M 116.5,26.5 C 118.042,27.3007 119.708,27.634 121.5,27.5C 121.703,32.7255 120.203,37.3921 117,41.5C 116.501,36.5111 116.334,31.5111 116.5,26.5 Z"/></g>
<g><path style="opacity:1" fill="#f8f5f4" d="M 113.5,45.5 C 112.833,45.5 112.167,45.5 111.5,45.5C 110.5,44.1667 109.5,42.8333 108.5,41.5C 108.5,36.5 108.5,31.5 108.5,26.5C 110.713,25.3947 112.88,25.3947 115,26.5C 115.667,32.1667 115.667,37.8333 115,43.5C 114.283,44.0442 113.783,44.7109 113.5,45.5 Z"/></g>
<g><path style="opacity:1" fill="#a2080d" d="M 79.5,42.5 C 44.0202,63.8257 32.1869,94.4924 44,134.5C 57.1493,164.131 79.9827,179.798 112.5,181.5C 148.093,179.287 171.593,161.287 183,127.5C 190.307,91.22 178.474,63.22 147.5,43.5C 179.503,57.7904 197.67,82.4571 202,117.5C 203.659,149.203 192.492,175.37 168.5,196C 128.492,223.139 89.4923,221.806 51.5,192C 19.8599,158.387 14.3599,120.887 35,79.5C 45.7635,62.2335 60.5968,49.9001 79.5,42.5 Z"/></g>
<g><path style="opacity:1" fill="#ab8715" d="M 110.5,45.5 C 110.833,45.5 111.167,45.5 111.5,45.5C 111.552,47.9029 111.219,50.2362 110.5,52.5C 110.785,54.288 110.452,55.9547 109.5,57.5C 108.769,54.1255 109.102,50.7921 110.5,47.5C 110.5,46.8333 110.5,46.1667 110.5,45.5 Z"/></g>
<g><path style="opacity:1" fill="#f8f6f3" d="M 119.5,49.5 C 119.369,50.2389 119.536,50.9056 120,51.5C 121.316,48.972 122.483,48.972 123.5,51.5C 121.935,52.2379 120.268,53.2379 118.5,54.5C 118.216,52.5853 118.549,50.9187 119.5,49.5 Z"/></g>
<g><path style="opacity:1" fill="#c3a866" d="M 111.5,45.5 C 112.167,45.5 112.833,45.5 113.5,45.5C 113.674,47.861 114.007,50.1944 114.5,52.5C 113.837,54.0419 113.17,55.7086 112.5,57.5C 111.83,55.7086 111.163,54.0419 110.5,52.5C 111.219,50.2362 111.552,47.9029 111.5,45.5 Z"/></g>
<g><path style="opacity:1" fill="#ab8614" d="M 113.5,45.5 C 114.167,46.5 114.833,47.5 115.5,48.5C 115.557,49.609 115.89,50.609 116.5,51.5C 116.39,53.3541 116.057,55.3541 115.5,57.5C 114.548,55.9547 114.215,54.288 114.5,52.5C 114.007,50.1944 113.674,47.861 113.5,45.5 Z"/></g>
<g><path style="opacity:1" fill="#e8deca" d="M 101.5,33.5 C 102.319,36.3054 102.819,39.3054 103,42.5C 103.249,41.376 103.749,40.376 104.5,39.5C 105.298,41.0777 105.798,42.7444 106,44.5C 106.414,44.0426 106.914,43.7093 107.5,43.5C 108.265,44.6119 109.265,45.2786 110.5,45.5C 110.5,46.1667 110.5,46.8333 110.5,47.5C 109.883,47.3893 109.383,47.056 109,46.5C 108.667,48.1667 108.333,49.8333 108,51.5C 107.751,50.376 107.251,49.376 106.5,48.5C 106.167,48.6667 105.833,48.8333 105.5,49C 106.747,50.4936 106.747,51.9936 105.5,53.5C 102.778,52.4598 101.612,53.4598 102,56.5C 102.667,55.8333 103.333,55.1667 104,54.5C 105,55.8333 106,55.8333 107,54.5C 107.781,55.9437 107.614,57.277 106.5,58.5C 105.406,56.1638 104.073,56.1638 102.5,58.5C 101.305,59.9675 101.305,61.4675 102.5,63C 102.333,63.5 102.167,64 102,64.5C 100.16,63.1669 99.6598,63.3335 100.5,65C 105.31,67.6209 106.31,66.7875 103.5,62.5C 106.321,61.0295 108.821,61.3628 111,63.5C 114.377,62.1801 117.877,61.1801 121.5,60.5C 121.709,59.914 122.043,59.414 122.5,59C 121.333,58.5 120.5,57.6667 120,56.5C 119.692,57.3081 119.192,57.9747 118.5,58.5C 117.218,57.0416 117.218,55.7082 118.5,54.5C 119.189,55.7736 120.023,55.7736 121,54.5C 122.022,55.354 122.855,56.354 123.5,57.5C 127.993,58.0002 130.993,60.3335 132.5,64.5C 132.426,66.4109 131.426,67.5776 129.5,68C 118.167,70 106.833,70 95.5,68C 93.6498,67.3103 92.3164,66.1436 91.5,64.5C 91.5,64.1667 91.5,63.8333 91.5,63.5C 92.4352,59.6412 94.7685,56.9746 98.5,55.5C 99.1744,53.8045 99.8411,52.1379 100.5,50.5C 101.489,45.0247 101.822,39.358 101.5,33.5 Z"/></g>
<g><path style="opacity:1" fill="#d5c399" d="M 110.5,47.5 C 109.102,50.7921 108.769,54.1255 109.5,57.5C 110.452,55.9547 110.785,54.288 110.5,52.5C 111.163,54.0419 111.83,55.7086 112.5,57.5C 113.17,55.7086 113.837,54.0419 114.5,52.5C 114.215,54.288 114.548,55.9547 115.5,57.5C 116.057,55.3541 116.39,53.3541 116.5,51.5C 117.158,50.6016 117.824,49.6016 118.5,48.5C 119.107,48.6236 119.44,48.9569 119.5,49.5C 118.549,50.9187 118.216,52.5853 118.5,54.5C 117.218,55.7082 117.218,57.0416 118.5,58.5C 119.192,57.9747 119.692,57.3081 120,56.5C 120.5,57.6667 121.333,58.5 122.5,59C 122.043,59.414 121.709,59.914 121.5,60.5C 117.877,61.1801 114.377,62.1801 111,63.5C 108.821,61.3628 106.321,61.0295 103.5,62.5C 106.31,66.7875 105.31,67.6209 100.5,65C 99.6598,63.3335 100.16,63.1669 102,64.5C 102.167,64 102.333,63.5 102.5,63C 101.305,61.4675 101.305,59.9675 102.5,58.5C 104.073,56.1638 105.406,56.1638 106.5,58.5C 107.614,57.277 107.781,55.9437 107,54.5C 106,55.8333 105,55.8333 104,54.5C 103.333,55.1667 102.667,55.8333 102,56.5C 101.612,53.4598 102.778,52.4598 105.5,53.5C 106.747,51.9936 106.747,50.4936 105.5,49C 105.833,48.8333 106.167,48.6667 106.5,48.5C 107.251,49.376 107.751,50.376 108,51.5C 108.333,49.8333 108.667,48.1667 109,46.5C 109.383,47.056 109.883,47.3893 110.5,47.5 Z"/></g>
<g><path style="opacity:1" fill="#0b6ac1" d="M 91.5,63.5 C 91.5,63.8333 91.5,64.1667 91.5,64.5C 71.2969,80.4678 68.1302,99.4678 82,121.5C 84.7273,124.731 87.894,127.397 91.5,129.5C 92.8333,126.833 92.8333,124.167 91.5,121.5C 89.9579,122.747 88.4579,122.747 87,121.5C 86.168,112.482 86.3347,103.482 87.5,94.5C 96.4518,93.3614 105.452,93.1948 114.5,94C 116.278,96.1354 116.945,98.6354 116.5,101.5C 123.841,101.334 131.174,101.5 138.5,102C 139,102.5 139.5,103 140,103.5C 140.667,109.5 140.667,115.5 140,121.5C 137.002,122.284 136.169,123.951 137.5,126.5C 152.995,110.852 155.162,93.5183 144,74.5C 141.262,70.2595 137.762,66.9262 133.5,64.5C 133.5,64.1667 133.5,63.8333 133.5,63.5C 158.061,76.629 167.561,96.9623 162,124.5C 153.813,149.171 136.646,161.837 110.5,162.5C 84.7041,160.203 68.5374,146.536 62,121.5C 58.3082,95.2161 68.1416,75.8827 91.5,63.5 Z"/></g>
<g><path style="opacity:1" fill="#f4f6f8" d="M 91.5,64.5 C 92.3164,66.1436 93.6498,67.3103 95.5,68C 106.833,70 118.167,70 129.5,68C 131.426,67.5776 132.426,66.4109 132.5,64.5C 132.833,64.5 133.167,64.5 133.5,64.5C 137.762,66.9262 141.262,70.2595 144,74.5C 155.162,93.5183 152.995,110.852 137.5,126.5C 136.169,123.951 137.002,122.284 140,121.5C 140.667,115.5 140.667,109.5 140,103.5C 139.5,103 139,102.5 138.5,102C 131.174,101.5 123.841,101.334 116.5,101.5C 116.945,98.6354 116.278,96.1354 114.5,94C 105.452,93.1948 96.4518,93.3614 87.5,94.5C 86.3347,103.482 86.168,112.482 87,121.5C 88.4579,122.747 89.9579,122.747 91.5,121.5C 92.8333,124.167 92.8333,126.833 91.5,129.5C 87.894,127.397 84.7273,124.731 82,121.5C 68.1302,99.4678 71.2969,80.4678 91.5,64.5 Z"/></g>
<g><path style="opacity:1" fill="#c9b27a" d="M 116.5,63.5 C 119.002,64.7785 121.502,64.7785 124,63.5C 125.067,64.1905 126.234,64.6905 127.5,65C 124.23,66.1261 121.397,66.2928 119,65.5C 116.171,67.8482 115.338,67.1816 116.5,63.5 Z"/></g>
<g><path style="opacity:1" fill="#0a6ac0" d="M 98.5,76.5 C 105.657,76.155 108.824,79.4884 108,86.5C 103.833,92.759 99.1668,93.0923 94,87.5C 92.7758,82.626 94.2758,78.9593 98.5,76.5 Z"/></g>
<g><path style="opacity:1" fill="#116bc1" d="M 124.5,84.5 C 131.24,83.5223 134.907,86.3556 135.5,93C 132.31,100.032 127.643,101.199 121.5,96.5C 119.567,91.6072 120.567,87.6072 124.5,84.5 Z"/></g>
<g><path style="opacity:1" fill="#eef2f6" d="M 120.5,107.5 C 126.555,106.942 127.888,109.109 124.5,114C 118.738,114.418 117.404,112.251 120.5,107.5 Z"/></g>
<g><path style="opacity:1" fill="#f2f4f7" d="M 114.5,116.5 C 120.167,116.5 125.833,116.5 131.5,116.5C 131.827,121.544 131.494,126.544 130.5,131.5C 125.108,134.077 119.441,135.41 113.5,135.5C 113.209,129.077 113.542,122.744 114.5,116.5 Z"/></g>
<g><path style="opacity:1" fill="#151515" d="M 172.5,122.5 C 173.643,122.908 174.643,123.575 175.5,124.5C 174.167,125.833 172.833,125.833 171.5,124.5C 171.863,123.817 172.196,123.15 172.5,122.5 Z"/></g>
<g><path style="opacity:1" fill="#f1f4f7" d="M 101.5,115.5 C 107.929,115.959 108.929,118.459 104.5,123C 106.676,123.163 108.509,123.996 110,125.5C 110.498,128.817 110.665,132.15 110.5,135.5C 105.571,135.747 100.905,134.747 96.5,132.5C 94.5455,126.939 96.5455,123.772 102.5,123C 98.8805,121.006 98.5471,118.506 101.5,115.5 Z"/></g>
<g><path style="opacity:1" fill="#0e0e0e" d="M 170.5,126.5 C 171.901,126.971 173.234,127.638 174.5,128.5C 172.167,129.941 170.834,129.275 170.5,126.5 Z"/></g>
<g><path style="opacity:1" fill="#171717" d="M 49.5,123.5 C 55.587,122.869 56.587,124.536 52.5,128.5C 58.7702,129.896 58.9369,131.563 53,133.5C 51.1886,132.576 51.3553,131.743 53.5,131C 52.552,130.517 51.552,130.351 50.5,130.5C 50.2965,128.61 50.9632,127.11 52.5,126C 50.8807,125.764 49.8807,124.931 49.5,123.5 Z"/></g>
<g><path style="opacity:1" fill="#131313" d="M 169.5,130.5 C 170.5,130.5 171.5,130.5 172.5,130.5C 173.401,134.241 172.068,136.241 168.5,136.5C 168.325,134.379 168.659,132.379 169.5,130.5 Z"/></g>
<g><path style="opacity:1" fill="#f5f2f2" d="M 169.5,132.5 C 171.337,132.639 171.67,133.306 170.5,134.5C 169.702,134.043 169.369,133.376 169.5,132.5 Z"/></g>
<g><path style="opacity:1" fill="#0c0c0c" d="M 54.5,134.5 C 58.061,134.915 57.8943,135.915 54,137.5C 53.5304,136.423 53.6971,135.423 54.5,134.5 Z"/></g>
<g><path style="opacity:1" fill="#131313" d="M 166.5,136.5 C 168.703,137.052 169.536,138.385 169,140.5C 167.519,139.529 166.685,138.196 166.5,136.5 Z"/></g>
<g><path style="opacity:1" fill="#1e1e1e" d="M 57.5,136.5 C 58.6521,137.834 59.6521,139.334 60.5,141C 60.3865,142.28 59.7199,143.113 58.5,143.5C 57.4104,142.609 57.4104,141.609 58.5,140.5C 54.0628,140.375 53.7294,139.041 57.5,136.5 Z"/></g>
<g><path style="opacity:1" fill="#151515" d="M 163.5,139.5 C 165.084,140.382 166.751,141.215 168.5,142C 166.369,143.647 164.369,143.314 162.5,141C 163.056,140.617 163.389,140.117 163.5,139.5 Z"/></g>
<g><path style="opacity:1" fill="#131313" d="M 60.5,143.5 C 62.5924,144.286 62.2591,145.286 59.5,146.5C 59.1667,146.167 58.8333,145.833 58.5,145.5C 59.2427,144.818 59.9094,144.151 60.5,143.5 Z"/></g>
<g><path style="opacity:1" fill="#151515" d="M 165.5,146.5 C 164.041,146.567 162.708,146.234 161.5,145.5C 163.088,143.254 164.422,143.588 165.5,146.5 Z"/></g>
<g><path style="opacity:1" fill="#767676" d="M 161.5,145.5 C 162.708,146.234 164.041,146.567 165.5,146.5C 165.167,147.5 164.5,148.167 163.5,148.5C 162.833,148.167 162.167,147.833 161.5,147.5C 160.167,146.833 160.167,146.167 161.5,145.5 Z"/></g>
<g><path style="opacity:1" fill="#3b3b3b" d="M 62.5,145.5 C 65.9228,146.759 66.4228,148.759 64,151.5C 62.5134,150.845 61.3467,149.845 60.5,148.5C 60.8457,147.304 61.3457,147.304 62,148.5C 62.4828,147.552 62.6495,146.552 62.5,145.5 Z"/></g>
<g><path style="opacity:1" fill="#202020" d="M 66.5,149.5 C 67.5,149.5 68.5,149.5 69.5,149.5C 69.5,150.5 69.5,151.5 69.5,152.5C 67.8762,152.36 66.7096,153.027 66,154.5C 65.5,154 65,153.5 64.5,153C 65.8228,152.184 66.4894,151.017 66.5,149.5 Z"/></g>
<g><path style="opacity:1" fill="#2b2b2b" d="M 161.5,147.5 C 162.167,147.833 162.833,148.167 163.5,148.5C 161.832,151.194 159.832,153.694 157.5,156C 154.866,156.925 153.699,156.091 154,153.5C 155.085,155.657 156.251,155.824 157.5,154C 154.833,152.667 154.833,151.333 157.5,150C 156.289,149.107 156.289,148.274 157.5,147.5C 158.814,148.313 159.981,149.313 161,150.5C 161.483,149.552 161.649,148.552 161.5,147.5 Z"/></g>
<g><path style="opacity:1" fill="#090909" d="M 72.5,155.5 C 70.7741,155.815 69.1075,155.981 67.5,156C 69.1702,153.114 70.8369,152.948 72.5,155.5 Z"/></g>
<g><path style="opacity:1" fill="#1a1a1a" d="M 72.5,155.5 C 74.4663,156.255 74.7996,157.421 73.5,159C 75.1261,158.805 76.7928,158.805 78.5,159C 75.6304,161.48 72.6304,161.813 69.5,160C 70.448,159.517 71.448,159.351 72.5,159.5C 72.5,158.167 72.5,156.833 72.5,155.5 Z"/></g>
<g><path style="opacity:1" fill="#0a0a0a" d="M 149.5,157.5 C 150.568,156.566 151.901,156.232 153.5,156.5C 153.737,157.791 153.404,158.791 152.5,159.5C 152.179,157.952 151.179,157.285 149.5,157.5 Z"/></g>
<g><path style="opacity:1" fill="#b3b3b3" d="M 149.5,157.5 C 151.179,157.285 152.179,157.952 152.5,159.5C 150.973,159.573 149.973,158.906 149.5,157.5 Z"/></g>
<g><path style="opacity:1" fill="#323232" d="M 149.5,157.5 C 149.973,158.906 150.973,159.573 152.5,159.5C 152.504,163.655 151.337,163.988 149,160.5C 148.623,161.942 147.79,162.942 146.5,163.5C 145.749,164.573 144.749,164.74 143.5,164C 142.549,163.282 142.383,162.449 143,161.5C 145.094,159.992 147.26,158.658 149.5,157.5 Z"/></g>
<g><path style="opacity:1" fill="#000000" d="M 80.5,164.5 C 79.596,163.791 79.2627,162.791 79.5,161.5C 80.552,161.351 81.552,161.517 82.5,162C 81.244,162.417 80.5774,163.25 80.5,164.5 Z"/></g>
<g><path style="opacity:1" fill="#111111" d="M 80.5,164.5 C 82.1238,164.64 83.2904,163.973 84,162.5C 84.4828,163.448 84.6495,164.448 84.5,165.5C 82.901,165.768 81.5676,165.434 80.5,164.5 Z"/></g>
<g><path style="opacity:1" fill="#313131" d="M 137.5,161.5 C 138.833,161.5 140.167,161.5 141.5,161.5C 140.287,164.152 139.121,166.485 138,168.5C 137.167,166.833 136.333,165.167 135.5,163.5C 136.243,162.818 136.909,162.151 137.5,161.5 Z"/></g>
<g><path style="opacity:1" fill="#d2d2d2" d="M 146.5,163.5 C 144.663,163.361 144.33,162.694 145.5,161.5C 146.298,161.957 146.631,162.624 146.5,163.5 Z"/></g>
<g><path style="opacity:1" fill="#2a2a2a" d="M 86.5,162.5 C 88.1033,162.312 89.4366,162.812 90.5,164C 85.2719,169.22 83.9385,168.72 86.5,162.5 Z"/></g>
<g><path style="opacity:1" fill="#232323" d="M 92.5,164.5 C 93.8589,165.007 94.8589,166.007 95.5,167.5C 96.1667,166.833 96.8333,166.167 97.5,165.5C 98.1883,167.477 97.855,169.477 96.5,171.5C 95.6143,170.675 95.281,169.675 95.5,168.5C 93.7741,168.815 92.1075,168.981 90.5,169C 91.2666,167.53 91.9332,166.03 92.5,164.5 Z"/></g>
<g><path style="opacity:1" fill="#2f2f2f" d="M 128.5,165.5 C 129.849,166.953 131.515,167.953 133.5,168.5C 131.979,170.529 129.979,171.362 127.5,171C 126.659,169.004 126.992,167.171 128.5,165.5 Z"/></g>
<g><path style="opacity:1" fill="#969696" d="M 128.5,165.5 C 128.735,164.903 129.235,164.57 130,164.5C 131.749,165.41 132.916,166.743 133.5,168.5C 131.515,167.953 129.849,166.953 128.5,165.5 Z"/></g>
<g><path style="opacity:1" fill="#ebd3d2" d="M 57.5,166.5 C 58.8333,166.5 60.1667,166.5 61.5,166.5C 61.5,167.833 61.5,169.167 61.5,170.5C 60.1667,170.5 58.8333,170.5 57.5,170.5C 57.5,169.167 57.5,167.833 57.5,166.5 Z"/></g>
<g><path style="opacity:1" fill="#1b1b1b" d="M 110.5,167.5 C 112.12,168.841 113.12,170.674 113.5,173C 112.551,173.617 111.718,173.451 111,172.5C 110.506,170.866 110.34,169.199 110.5,167.5 Z"/></g>
<g><path style="opacity:1" fill="#f3e7e6" d="M 166.5,166.5 C 171.422,166.899 175.255,169.233 178,173.5C 178.927,176.596 177.927,178.93 175,180.5C 175,178.5 175,176.5 175,174.5C 169.61,174.954 166.777,172.287 166.5,166.5 Z"/></g>
<g><path style="opacity:1" fill="#0f0f0f" d="M 114.5,168.5 C 117.742,168.467 118.075,169.8 115.5,172.5C 114.571,171.311 114.238,169.978 114.5,168.5 Z"/></g>
<g><path style="opacity:1" fill="#151515" d="M 118.5,167.5 C 120.086,168.148 121.753,168.648 123.5,169C 124.731,170.183 124.731,171.349 123.5,172.5C 122.167,168.5 120.833,168.5 119.5,172.5C 118.548,170.955 118.215,169.288 118.5,167.5 Z"/></g>
<g><path style="opacity:1" fill="#242424" d="M 98.5,168.5 C 100.372,169.359 102.038,169.692 103.5,169.5C 102.264,170.357 100.931,171.023 99.5,171.5C 98.6143,170.675 98.281,169.675 98.5,168.5 Z"/></g>
<g><path style="opacity:1" fill="#161616" d="M 104.5,170.5 C 106.337,170.639 106.67,171.306 105.5,172.5C 104.702,172.043 104.369,171.376 104.5,170.5 Z"/></g>
<g><path style="opacity:1" fill="#282828" d="M 105.5,169.5 C 107.377,168.072 108.711,168.572 109.5,171C 109.167,171.5 108.833,172 108.5,172.5C 107.859,171.007 106.859,170.007 105.5,169.5 Z"/></g>
<g><path style="opacity:1" fill="#eedcdc" d="M 156.5,169.5 C 157.833,169.5 159.167,169.5 160.5,169.5C 160.5,170.833 160.5,172.167 160.5,173.5C 157.858,173.512 156.525,172.179 156.5,169.5 Z"/></g>
<g><path style="opacity:1" fill="#f1e1e0" d="M 48.5,170.5 C 49.8734,170.343 51.2068,170.51 52.5,171C 48.8094,172.69 48.6427,174.524 52,176.5C 53.7144,175.924 54.8811,174.757 55.5,173C 56.635,172.251 57.635,172.417 58.5,173.5C 56.966,177.358 54.1327,179.691 50,180.5C 43.5377,177.697 43.0377,174.364 48.5,170.5 Z"/></g>
<g><path style="opacity:1" fill="#f3e7e6" d="M 63.5,171.5 C 68.4224,171.11 68.7557,172.277 64.5,175C 65.9961,175.507 67.1627,175.007 68,173.5C 70.2503,174.708 72.417,176.041 74.5,177.5C 72.515,179.933 70.3483,179.933 68,177.5C 66.9214,181.305 67.5881,184.638 70,187.5C 71.0852,186.707 72.2519,186.04 73.5,185.5C 73.1654,186.664 73.1654,187.997 73.5,189.5C 74.6199,188.167 75.9532,187.667 77.5,188C 74.9918,192.444 75.4918,192.611 79,188.5C 79.6838,189.784 79.5171,190.951 78.5,192C 79.5634,193.188 80.8967,193.688 82.5,193.5C 82.3964,189.973 83.5631,186.973 86,184.5C 86.4709,186.246 87.1376,187.913 88,189.5C 88.8333,188.5 89.6667,187.5 90.5,186.5C 90.8333,186.833 91.1667,187.167 91.5,187.5C 90.3546,190.748 89.5213,194.081 89,197.5C 88.3848,199.116 87.3848,200.449 86,201.5C 85.7791,198.096 86.2791,194.762 87.5,191.5C 87.1667,191.167 86.8333,190.833 86.5,190.5C 84.6667,193.5 82.8333,196.5 81,199.5C 71.6963,195.435 63.5296,189.768 56.5,182.5C 55.6744,181.549 55.5078,180.549 56,179.5C 58.705,176.964 61.205,174.297 63.5,171.5 Z"/></g>
<g><path style="opacity:1" fill="#f2e5e4" d="M 163.5,175.5 C 170.037,173.856 173.203,176.522 173,183.5C 171.867,185.211 170.367,185.711 168.5,185C 169.769,182.861 169.769,180.695 168.5,178.5C 166.491,177.935 164.824,176.935 163.5,175.5 Z"/></g>
<g><path style="opacity:1" fill="#f2e6e5" d="M 154.5,176.5 C 154.56,175.957 154.893,175.624 155.5,175.5C 159.456,177.788 162.789,180.788 165.5,184.5C 165.167,184.833 164.833,185.167 164.5,185.5C 160.472,183.132 157.139,180.132 154.5,176.5 Z"/></g>
<g><path style="opacity:1" fill="#9e0102" d="M 62.5,176.5 C 63.6129,177.946 63.7796,179.613 63,181.5C 62.1667,180.667 61.3333,179.833 60.5,179C 61.3805,178.292 62.0472,177.458 62.5,176.5 Z"/></g>
<g><path style="opacity:1" fill="#efdede" d="M 144.5,181.5 C 145.833,181.5 147.167,181.5 148.5,181.5C 148.5,182.5 148.5,183.5 148.5,184.5C 146.263,185.449 143.929,186.116 141.5,186.5C 141.31,184.041 142.31,182.374 144.5,181.5 Z"/></g>
<g><path style="opacity:1" fill="#f3e6e6" d="M 155.5,183.5 C 162.108,184.285 164.608,187.952 163,194.5C 161.274,195.576 159.441,195.743 157.5,195C 160.041,193.152 161.041,190.652 160.5,187.5C 157.454,187.817 155.787,186.484 155.5,183.5 Z"/></g>
<g><path style="opacity:1" fill="#f0dcd9" d="M 146.5,186.5 C 153.176,187.685 154.843,191.185 151.5,197C 149.892,197.658 148.725,197.158 148,195.5C 147.304,192.522 146.804,189.522 146.5,186.5 Z"/></g>
<g><path style="opacity:1" fill="#f5eceb" d="M 106.5,192.5 C 104.914,191.587 103.414,191.587 102,192.5C 98.9782,191.357 98.8116,190.023 101.5,188.5C 102.833,189.833 104.167,189.833 105.5,188.5C 107.642,189.437 107.976,190.77 106.5,192.5 Z"/></g>
<g><path style="opacity:1" fill="#f3e8e7" d="M 94.5,192.5 C 96.8896,192.685 97.8896,194.018 97.5,196.5C 97.232,200.143 95.8987,203.31 93.5,206C 90.947,206.851 88.6137,206.518 86.5,205C 89.1768,204.751 91.5101,203.751 93.5,202C 91.8198,201.653 90.8198,200.653 90.5,199C 91.25,196.429 92.5833,194.262 94.5,192.5 Z"/></g>
<g><path style="opacity:1" fill="#f2e3e2" d="M 106.5,192.5 C 107.434,193.568 107.768,194.901 107.5,196.5C 106.842,200.677 108.508,202.177 112.5,201C 111.552,200.517 110.552,200.351 109.5,200.5C 109.5,199.5 109.5,198.5 109.5,197.5C 109.866,196.305 110.699,195.639 112,195.5C 115.146,197.253 118.313,197.92 121.5,197.5C 122.251,198.376 122.751,199.376 123,200.5C 124.69,197.976 126.857,195.976 129.5,194.5C 131.197,195.364 132.363,196.697 133,198.5C 134.647,196.369 134.314,194.369 132,192.5C 130.99,187.905 132.157,186.905 135.5,189.5C 136.167,188.167 136.833,186.833 137.5,185.5C 141.196,189.596 142.863,194.263 142.5,199.5C 140.667,196.5 138.833,193.5 137,190.5C 136.13,191.108 135.63,191.941 135.5,193C 137.662,195.786 138.329,198.786 137.5,202C 130.042,204.576 122.375,206.076 114.5,206.5C 114.541,202.757 113.874,202.59 112.5,206C 111.5,206.167 110.5,206.333 109.5,206.5C 106.31,205.767 102.976,204.767 99.5,203.5C 101.434,199.569 103.767,195.902 106.5,192.5 Z"/></g>
<g><path style="opacity:1" fill="#be6460" d="M 107.5,196.5 C 108.167,196.833 108.833,197.167 109.5,197.5C 109.5,198.5 109.5,199.5 109.5,200.5C 110.552,200.351 111.552,200.517 112.5,201C 108.508,202.177 106.842,200.677 107.5,196.5 Z"/></g>
</svg>
